<svg width="1028" height="1028" viewBox="0 0 1028 1028" fill="none" xmlns="http://www.w3.org/2000/svg">
<rect width="1024" height="1024" transform="translate(1 1)" fill="#F18D8D"/>
<rect x="1" y="1" width="1024" height="1024" fill="url(#paint0_linear_7256_138)"/>
<g opacity="0.4">
<mask id="mask0_7256_138" style="mask-type:luminance" maskUnits="userSpaceOnUse" x="1" y="1" width="1024" height="1024">
<rect x="1" y="1" width="1024" height="1024" fill="white"/>
</mask>
<g mask="url(#mask0_7256_138)">
<path opacity="0.5" fill-rule="evenodd" clip-rule="evenodd" d="M707.164 909.556C750.419 888.291 789.707 860.182 823.601 826.612L951.618 954.629H707.164V909.556ZM515.164 954.629V954.578C582.304 954.254 645.954 938.894 702.897 911.655V954.629H515.164ZM323.164 954.629V911.655C380.107 938.894 443.757 954.254 510.897 954.578V954.629H323.164ZM74.4514 954.629L202.46 826.612C236.354 860.182 275.65 888.291 318.897 909.556V954.629H74.4514ZM116.504 707.162C137.769 750.418 165.877 789.705 199.448 823.6L71.4306 951.617V707.162H116.504ZM71.4306 515.162H71.4818C71.806 582.311 87.166 645.953 114.404 702.896H71.4306V515.162ZM71.4306 323.162H114.404C87.166 380.105 71.806 443.755 71.4818 510.896H71.4306V323.162ZM71.4306 74.4498L199.448 202.458C165.877 236.353 137.769 275.649 116.504 318.896H71.4306V74.4498ZM318.897 116.502C275.65 137.767 236.354 165.876 202.46 199.446L74.4514 71.429H318.897V116.502ZM510.897 71.429V71.4802C443.757 71.8045 380.107 87.173 323.164 114.403V71.429H510.897ZM702.897 71.429V114.403C645.954 87.173 582.304 71.8045 515.164 71.4802V71.429H702.897ZM951.618 71.429L823.601 199.446C789.707 165.876 750.419 137.767 707.164 116.502V71.429H951.618ZM909.557 318.896C888.301 275.649 860.192 236.353 826.622 202.458L954.631 74.4498V318.896H909.557ZM954.631 510.896H954.579C954.264 443.755 938.895 380.105 911.665 323.162H954.631V510.896ZM954.631 702.896H911.665C938.895 645.953 954.264 582.311 954.579 515.162H954.631V702.896ZM710.185 707.162H904.762C883.829 749.249 856.352 787.512 823.601 820.579L710.185 707.162ZM707.164 710.175L820.589 823.6C787.514 856.351 749.25 883.819 707.164 904.76V710.175ZM515.164 788.178C587.893 787.615 653.95 758.695 702.897 711.958V906.953C646.048 934.465 582.372 949.987 515.164 950.311V788.178ZM323.164 711.958C372.111 758.695 438.168 787.615 510.897 788.178V950.311C443.689 949.987 380.013 934.465 323.164 906.953V711.958ZM318.897 710.183V904.76C276.819 883.819 238.547 856.351 205.481 823.6L318.897 710.183ZM315.885 707.162L202.46 820.579C169.709 787.512 142.24 749.249 121.299 707.162H315.885ZM237.882 515.162C238.445 587.892 267.364 653.948 314.102 702.896H119.106C91.5948 646.047 76.0727 582.371 75.7484 515.162H237.882ZM314.102 323.162C267.364 372.11 238.445 438.166 237.882 510.896H75.7484C76.0727 443.687 91.5948 380.011 119.115 323.162H314.102ZM315.885 318.896H121.299C142.24 276.818 169.709 238.546 202.46 205.479L315.885 318.896ZM318.897 315.875L205.481 202.458C238.547 169.707 276.819 142.239 318.897 121.298V315.875ZM510.897 237.88C438.168 238.443 372.111 267.363 323.164 314.1V119.113C380.013 91.5933 443.689 76.0711 510.897 75.7469V237.88ZM702.897 314.1C653.95 267.363 587.893 238.443 515.164 237.88V75.7469C582.372 76.0711 646.048 91.5933 702.897 119.113V314.1ZM707.164 315.883V121.298C749.25 142.239 787.514 169.707 820.589 202.458L707.164 315.883ZM710.185 318.896L823.601 205.479C856.352 238.546 883.821 276.818 904.762 318.896H710.185ZM788.179 510.896C787.625 438.166 758.697 372.11 711.96 323.162H906.955C934.466 380.011 949.988 443.687 950.313 510.896H788.179ZM788.179 515.162H950.313C949.988 582.371 934.466 646.047 906.955 702.896H711.96C758.697 653.948 787.625 587.892 788.179 515.162ZM515.164 707.162H701.745C653.395 754.181 587.637 783.348 515.164 783.911V707.162ZM510.897 707.162V783.911C438.424 783.348 372.666 754.181 324.316 707.162H510.897ZM318.897 515.162V701.744C271.887 653.394 242.72 587.636 242.148 515.162H318.897ZM318.897 510.896H242.148C242.72 438.422 271.887 372.664 318.897 324.314V510.896ZM510.897 318.896H324.316C372.666 271.886 438.424 242.719 510.897 242.147V318.896ZM515.164 318.896V242.147C587.637 242.719 653.395 271.886 701.745 318.896H515.164ZM707.164 510.896V324.314C754.183 372.664 783.349 438.422 783.913 510.896H707.164ZM707.164 515.162H783.913C783.349 587.636 754.183 653.394 707.164 701.752V515.162ZM515.164 518.175L699.885 702.896H515.164V518.175ZM510.897 518.183V702.896H326.185L510.897 518.183ZM507.885 515.162L323.164 699.883V515.162H507.885ZM507.885 510.896H323.164V326.175L507.885 510.896ZM510.897 507.875L326.185 323.162H510.897V507.875ZM515.164 507.883V323.162H699.885L515.164 507.883ZM702.897 515.162V699.875L518.185 515.162H702.897ZM518.185 510.896L702.897 326.183V510.896H518.185ZM954.631 951.617L826.622 823.6C860.192 789.705 888.301 750.418 909.557 707.162H954.631V951.617ZM1036.58 1033.56L961.918 958.896H1027.16V954.629H958.897V707.162H1027.16V702.896H958.897V515.162H1027.16V510.896H958.897V323.162H1027.16V318.896H958.897V71.429H1027.16V67.1623H961.918L1028.05 1.02899L1025.03 -1.98328L958.897 64.1501V-1.10434H954.631V67.1623H707.164V-1.10434H702.897V67.1623H515.164V-1.10434H510.897V67.1623H323.164V-1.10434H318.897V67.1623H71.4306V-1.10434H67.1639V64.1501L1.03057 -1.98328L-1.99023 1.02899L64.1516 67.1623H-1.10277V71.429H67.1639V318.896H-1.10277V323.162H67.1639V510.896H-1.10277V515.162H67.1639V702.896H-1.10277V707.162H67.1639V954.629H-1.10277V958.896H64.1516L-1.99023 1025.03L1.03057 1028.05L67.1639 961.916V1027.16H71.4306V958.896H318.897V1027.16H323.164V958.896H510.897V1027.16H515.164V958.896H702.897V1027.16H707.164V958.896H954.631V1027.16H958.897V961.916L1033.56 1036.58L1036.58 1033.56Z" fill="white"/>
</g>
</g>
<g opacity="0.4">
<rect opacity="0.720266" x="174" y="46" width="680" height="936" rx="71" stroke="white" stroke-width="2"/>
<rect opacity="0.720266" x="110" y="110" width="808" height="808" rx="71" stroke="white" stroke-width="2"/>
<rect opacity="0.720266" x="46" y="174" width="936" height="680" rx="71" stroke="white" stroke-width="2"/>
<path d="M982 514C982 772.469 772.469 982 514 982C255.531 982 46 772.469 46 514C46 255.531 255.531 46 514 46C772.469 46 982 255.531 982 514Z" stroke="white" stroke-width="2"/>
<path d="M724 514C724 629.98 629.98 724 514 724C398.02 724 304 629.98 304 514C304 398.02 398.02 304 514 304C629.98 304 724 398.02 724 514Z" stroke="white" stroke-width="2"/>
<rect x="366" y="366" width="296" height="296" stroke="white" stroke-width="2"/>
<path d="M366 2V1026" stroke="white" stroke-width="2" stroke-linecap="square"/>
<path d="M514 1V1025" stroke="white" stroke-width="2" stroke-linecap="square"/>
<path d="M662 1V1025" stroke="white" stroke-width="2" stroke-linecap="square"/>
<path d="M1026 366H2" stroke="white" stroke-width="2" stroke-linecap="square"/>
<path d="M1025 514H1" stroke="white" stroke-width="2" stroke-linecap="square"/>
<path d="M1026 662H2" stroke="white" stroke-width="2" stroke-linecap="square"/>
<path d="M2 2L1026 1026" stroke="white" stroke-width="2" stroke-linecap="square"/>
<path d="M1026 2L2 1026" stroke="white" stroke-width="2" stroke-linecap="square"/>
</g>
<rect x="1" y="1" width="1024" height="1024" fill="#8976FD"/>
<g clip-path="url(#clip0_7256_138)">
<path d="M384.8 226.5L228.5 414.47L465.73 457.18L384.8 226.5Z" stroke="white" stroke-width="75" stroke-miterlimit="10" stroke-linecap="round" stroke-linejoin="round"/>
<path d="M351.011 799.9C411.1 799.9 459.811 751.189 459.811 691.1C459.811 631.011 411.1 582.3 351.011 582.3C290.922 582.3 242.211 631.011 242.211 691.1C242.211 751.189 290.922 799.9 351.011 799.9Z" stroke="white" stroke-width="75" stroke-miterlimit="10" stroke-linecap="round" stroke-linejoin="round"/>
<path d="M745.5 591.84C720.96 580.82 692.32 578.82 664.93 588.43C608.23 608.32 578.39 670.41 598.28 727.11C618.17 783.81 680.26 813.65 736.96 793.76C764.35 784.15 785.47 764.7 797.74 740.76" stroke="white" stroke-width="75" stroke-miterlimit="10" stroke-linecap="round" stroke-linejoin="round"/>
<path d="M637.466 226.488L608.951 384.866L767.329 413.381L795.844 255.003L637.466 226.488Z" stroke="white" stroke-width="75" stroke-miterlimit="10" stroke-linecap="round" stroke-linejoin="round"/>
<path d="M595.119 461.68L608.949 384.87" stroke="white" stroke-width="75" stroke-miterlimit="10" stroke-linecap="round" stroke-linejoin="round"/>
</g>
<defs>
<linearGradient id="paint0_linear_7256_138" x1="513" y1="1" x2="513" y2="1025" gradientUnits="userSpaceOnUse">
<stop stop-color="#E8EBEE"/>
<stop offset="1" stop-color="#CED3DB"/>
</linearGradient>
<clipPath id="clip0_7256_138">
<rect width="644.25" height="648.43" fill="white" transform="translate(191 189)"/>
</clipPath>
</defs>
</svg>
